<svg width="600" height="400" xmlns="http://www.w3.org/2000/svg">
 <g id="Layer_13">
  <title>Layer 13</title>
  <g stroke="null" stroke-width="0" id="svg_30">
   <g stroke="null" id="svg_29">
    <g stroke="null" id="svg_28">
     <g stroke="null" id="svg_27">
      <g stroke="null" id="svg_26">
       <g stroke="null" id="svg_25">
        <g stroke="null" id="svg_24">
         <g stroke="null" id="svg_23">
          <path stroke="#fff" id="svg_22" d="m199.79714,324.50622l0,-0.45473c0,-1.66732 2.15351,-8.36695 3.62419,-11.42877c4.25447,-8.63978 10.66246,-15.24846 20.2219,-20.73548c12.50081,-7.24529 29.046,-11.61066 50.73858,-13.42956c2.31107,-0.18189 4.62215,-0.36378 4.98982,-0.36378l0.78787,0l0,4.36536l-0.78787,0.06063c-0.42019,0.03032 -2.36359,0.18189 -4.307,0.36378c-19.43403,1.54607 -36.14602,5.19227 -47.49129,11.74031c-11.34527,6.57836 -18.82432,15.17688 -21.50306,26.36312c-0.31515,1.12166 -1.07108,2.82187 0.10965,3.06438l-1.09165,0.06903l-5.29114,0.3857z" fill="#5e8f80"/>
         </g>
        </g>
       </g>
      </g>
     </g>
    </g>
   </g>
  </g>
 </g>

</svg>