<svg width="600" height="400" xmlns="http://www.w3.org/2000/svg">
 <g id="Layer_14">
  <title>Layer 14</title>
  <g stroke="null" stroke-width="0" id="svg_4">
   <g stroke="null" id="svg_6">
    <g stroke="null" id="svg_7">
     <g stroke="null" id="svg_12">
      <g stroke="null">
       <g stroke="null">
        <g stroke="null">
         <g stroke="null">
          <path stroke="#fff" d="m400.71441,324.35972l0,-0.45473c0,-1.66733 -2.16112,-8.36695 -3.63701,-11.42877c-4.26954,-8.63979 -10.7002,-15.24846 -20.29348,-20.73549c-12.54506,-7.24529 -29.14882,-11.61066 -50.91819,-13.42956c-2.31926,-0.18189 -4.63851,-0.36378 -5.00748,-0.36378l-0.79066,0l0,4.36537l0.79066,0.06063c0.42168,0.03032 2.37197,0.18189 4.32225,0.36378c19.50283,1.54607 36.27397,5.19227 47.6594,11.74031c11.38543,6.57836 18.89096,15.17687 21.57918,26.36312c0.31626,1.12166 1.07486,2.82186 -0.11005,3.06438l1.09552,0.06902l5.30987,0.3857z" fill="#5e8f80"/>
         </g>
        </g>
       </g>
      </g>
     </g>
    </g>
   </g>
  </g>
 </g>

</svg>